<svg xmlns="http://www.w3.org/2000/svg" width="100%" height="100%" preserveAspectRatio="xMidYMid meet" viewBox="0 0 500 45.72380828857422" overflow="visible"><defs id="SvgjsDefs1598"></defs><g id="SvgjsG1599" transform="scale(0.6376032917332607)" opacity="1"><g id="SvgjsG1600" class="7g2JW8jtf" transform="translate(0, 0) scale(0.26798205666803937)" light-content="false" non-strokable="false" fill="#ffffff"><circle cx="133.8" cy="133.8" r="133.8"></circle></g><g id="SvgjsG1601" class="text" transform="translate(33.80221875, 50.205937500000005) scale(1)" light-content="true" fill="#2e2e2e"><path d="M0.36 0.08C2.87 0.08 5.45 -1.65 8.11 -5.09L9.02 -6.31L7.96 -8.89C7.02 -7.45 5.97 -6.24 4.79 -5.28C3.61 -4.32 2.67 -3.84 1.96 -3.84C1.53 -3.84 1.22 -4.01 1.05 -4.35C0.87 -4.69 0.73 -5.43 0.63 -6.57C-0.51 -20.15 -1.1 -27.54 -1.12 -28.73C-1.68 -28.88 -2.14 -28.96 -2.51 -28.96L-3.44 -28.96L-4.24 -28.96C-5.48 -28.96 -6.5 -28.73 -7.31 -28.27C-10.38 -20.29 -12.57 -14.62 -13.89 -11.25C-18.55 -9.25 -21.05 -7.03 -21.37 -4.6C-21.43 -4.27 -21.45 -3.95 -21.45 -3.65C-21.45 -2.56 -21.13 -1.64 -20.48 -0.89C-19.84 -0.15 -18.99 0.23 -17.95 0.23C-16.92 0.23 -15.94 0 -15.03 -0.46C-14.67 -0.63 -14.33 -0.92 -13.98 -1.33C-13.64 -1.74 -13.38 -2.07 -13.19 -2.34C-13 -2.6 -12.77 -3.03 -12.5 -3.61C-12.24 -4.19 -12.05 -4.63 -11.95 -4.92C-11.85 -5.21 -11.67 -5.7 -11.42 -6.38L-10.13 -9.96C-8.33 -10.54 -6.54 -11.1 -4.77 -11.63C-4.62 -9.53 -4.46 -7.82 -4.31 -6.5C-4.06 -3.96 -3.57 -2.24 -2.85 -1.31C-2.13 -0.39 -1.06 0.08 0.36 0.08ZM-5.68 -22.34L-5.03 -14.44C-5.9 -14.16 -7.21 -13.72 -8.99 -13.11ZM-18.75 -4.45C-18.75 -5.59 -17.57 -6.75 -15.22 -7.94C-15.9 -6.17 -16.41 -4.93 -16.74 -4.22C-17.02 -3.56 -17.38 -3.23 -17.84 -3.23C-18.45 -3.23 -18.75 -3.64 -18.75 -4.45Z M25.52 -24.62C25.54 -24.88 25.56 -25.13 25.56 -25.38C25.56 -26.6 25.24 -27.65 24.6 -28.54C23.44 -27.65 22 -27.21 20.27 -27.21C19.31 -27.21 17.95 -27.5 16.19 -28.08C14.43 -28.66 13.08 -28.96 12.14 -28.96C10.62 -28.96 9.36 -28.56 8.36 -27.76C7.36 -26.96 6.86 -25.87 6.86 -24.47C6.86 -23.08 7.35 -21.95 8.32 -21.09C9.3 -20.23 10.71 -19.8 12.56 -19.8C13.72 -19.8 15.07 -20.06 16.59 -20.6C16.28 -18.39 15.79 -14.15 15.1 -7.87C14.75 -4.72 13.51 -3.15 11.38 -3.15C10.67 -3.15 10.06 -3.4 9.56 -3.89C9.05 -4.39 8.8 -5.09 8.8 -6C8.8 -6.92 9.15 -7.68 9.84 -8.28C10.54 -8.89 11.34 -9.2 12.24 -9.2C13.14 -9.2 13.8 -9.15 14.23 -9.04L14.42 -11.36C13.81 -11.51 12.98 -11.59 11.91 -11.59C10.19 -11.59 8.77 -11.02 7.64 -9.88C6.51 -8.74 5.95 -7.35 5.95 -5.72C5.95 -4.08 6.52 -2.68 7.68 -1.5C8.83 -0.32 10.46 0.27 12.56 0.27C14.66 0.27 16.42 -0.47 17.82 -1.94C19.23 -3.41 20.11 -5.42 20.46 -7.98L22.44 -22.08C22.57 -22.99 22.81 -23.69 23.18 -24.17C23.55 -24.65 23.93 -24.89 24.32 -24.89C24.71 -24.89 25.11 -24.8 25.52 -24.62ZM10.62 -23.45C10.62 -24.08 10.94 -24.4 11.57 -24.4C11.77 -24.4 12.39 -24.25 13.43 -23.96C14.47 -23.67 15.49 -23.41 16.47 -23.18C15.1 -22.42 14 -22.04 13.15 -22.04C12.3 -22.04 11.67 -22.18 11.25 -22.46C10.83 -22.74 10.62 -23.07 10.62 -23.45Z"></path></g><rect id="SvgjsRect1602" width="2" height="71.712" fill="#ffffff" transform="translate(93.712, 0) scale(1)" light-content="false"></rect><g id="SvgjsG1603" class="text" transform="translate(295.49325, 60.15521875) scale(1)" light-content="false" fill="#ffffff"><path d="M-177.78 0L-164.94 0L-164.94 -1.26L-170.34 -3.66L-165.48 -16.26L-149.52 -16.26L-144.42 -2.04L-149.34 -1.26L-149.34 0L-131.7 0L-131.7 -1.26L-137.22 -2.16L-153.6 -49.2L-154.56 -49.2L-171.9 -3.66L-177.78 -1.26ZM-165 -17.52L-157.14 -38.64L-149.94 -17.52Z M-131.34 -1.2L-131.34 0L-116.34 0L-116.34 -1.2L-121.14 -1.8L-121.14 -24.24C-120.02 -25.88 -119.02 -27.09 -118.14 -27.87C-117.26 -28.65 -116.4 -29.04 -115.56 -29.04C-114.8 -29.04 -114.19 -28.83 -113.73 -28.41C-113.27 -27.99 -113.04 -27.44 -113.04 -26.76C-113.04 -26.12 -113.26 -25.52 -113.7 -24.96C-112.9 -23.96 -111.86 -23.46 -110.58 -23.46C-109.46 -23.46 -108.56 -23.81 -107.88 -24.51C-107.2 -25.21 -106.86 -26.08 -106.86 -27.12C-106.86 -28.56 -107.44 -29.67 -108.6 -30.45C-109.76 -31.23 -111.1 -31.62 -112.62 -31.62C-115.78 -31.62 -118.62 -29.9 -121.14 -26.46L-121.14 -31.08L-131.34 -31.08L-131.34 -29.88L-127.14 -29.28L-127.14 -1.8Z M-101.22 -1.41C-99.58 -0.07 -97.48 0.6 -94.92 0.6C-92.52 0.6 -90.33 0.02 -88.35 -1.14C-86.37 -2.3 -84.9 -3.9 -83.94 -5.94C-83.9 -3.7 -83.25 -2.05 -81.99 -0.99C-80.73 0.07 -79.18 0.6 -77.34 0.6C-75.74 0.6 -74.49 0.2 -73.59 -0.6C-72.69 -1.4 -72.24 -2.5 -72.24 -3.9L-73.5 -3.9C-73.5 -3.1 -73.7 -2.47 -74.1 -2.01C-74.5 -1.55 -75.04 -1.32 -75.72 -1.32C-76.44 -1.32 -76.99 -1.55 -77.37 -2.01C-77.75 -2.47 -77.94 -3.14 -77.94 -4.02L-77.94 -21.18C-77.94 -28.14 -81.94 -31.62 -89.94 -31.62C-93.42 -31.62 -96.32 -30.92 -98.64 -29.52C-100.96 -28.12 -102.12 -26.26 -102.12 -23.94C-102.12 -22.66 -101.78 -21.71 -101.1 -21.09C-100.42 -20.47 -99.52 -20.16 -98.4 -20.16C-97.36 -20.16 -96.46 -20.54 -95.7 -21.3C-94.94 -22.06 -94.56 -22.94 -94.56 -23.94C-95.68 -24.3 -96.24 -25.06 -96.24 -26.22C-96.24 -27.46 -95.78 -28.45 -94.86 -29.19C-93.94 -29.93 -92.54 -30.3 -90.66 -30.3C-89.02 -30.3 -87.72 -30.07 -86.76 -29.61C-85.8 -29.15 -85.09 -28.35 -84.63 -27.21C-84.17 -26.07 -83.94 -24.46 -83.94 -22.38L-83.94 -17.76L-87.96 -17.76C-92.12 -17.76 -95.78 -16.97 -98.94 -15.39C-102.1 -13.81 -103.68 -11.14 -103.68 -7.38C-103.68 -4.74 -102.86 -2.75 -101.22 -1.41ZM-88.29 -3C-89.43 -2.36 -90.54 -2.04 -91.62 -2.04C-93.62 -2.04 -95.14 -2.5 -96.18 -3.42C-97.22 -4.34 -97.74 -5.9 -97.74 -8.1C-97.74 -10.74 -96.93 -12.79 -95.31 -14.25C-93.69 -15.71 -91.24 -16.44 -87.96 -16.44L-83.94 -16.44L-83.94 -10.2C-84.1 -8.48 -84.58 -7.01 -85.38 -5.79C-86.18 -4.57 -87.15 -3.64 -88.29 -3Z M-70.8 -1.2L-70.8 0L-53.46 0L-53.46 -1.2L-60.6 -1.8L-60.6 -29.28L-52.8 -29.88L-52.8 -31.08L-60.6 -31.08L-60.6 -37.98C-60.6 -41.26 -60.27 -43.63 -59.61 -45.09C-58.95 -46.55 -57.84 -47.28 -56.28 -47.28C-55.52 -47.28 -54.87 -47.03 -54.33 -46.53C-53.79 -46.03 -53.52 -45.44 -53.52 -44.76C-53.52 -43.28 -54.2 -42.34 -55.56 -41.94C-55.56 -40.94 -55.18 -40.06 -54.42 -39.3C-53.66 -38.54 -52.78 -38.16 -51.78 -38.16C-50.66 -38.16 -49.77 -38.54 -49.11 -39.3C-48.45 -40.06 -48.12 -41.04 -48.12 -42.24C-48.12 -44.2 -48.89 -45.75 -50.43 -46.89C-51.97 -48.03 -53.92 -48.6 -56.28 -48.6C-60.04 -48.6 -62.7 -47.48 -64.26 -45.24C-65.82 -43 -66.6 -39.96 -66.6 -36.12L-66.6 -31.08L-70.8 -31.08L-70.8 -29.88L-66.6 -29.28L-66.6 -1.8Z M-46.8 -1.41C-45.16 -0.07 -43.06 0.6 -40.5 0.6C-38.1 0.6 -35.91 0.02 -33.93 -1.14C-31.95 -2.3 -30.48 -3.9 -29.52 -5.94C-29.48 -3.7 -28.83 -2.05 -27.57 -0.99C-26.31 0.07 -24.76 0.6 -22.92 0.6C-21.32 0.6 -20.07 0.2 -19.17 -0.6C-18.27 -1.4 -17.82 -2.5 -17.82 -3.9L-19.08 -3.9C-19.08 -3.1 -19.28 -2.47 -19.68 -2.01C-20.08 -1.55 -20.62 -1.32 -21.3 -1.32C-22.02 -1.32 -22.57 -1.55 -22.95 -2.01C-23.33 -2.47 -23.52 -3.14 -23.52 -4.02L-23.52 -21.18C-23.52 -28.14 -27.52 -31.62 -35.52 -31.62C-39 -31.62 -41.9 -30.92 -44.22 -29.52C-46.54 -28.12 -47.7 -26.26 -47.7 -23.94C-47.7 -22.66 -47.36 -21.71 -46.68 -21.09C-46 -20.47 -45.1 -20.16 -43.98 -20.16C-42.94 -20.16 -42.04 -20.54 -41.28 -21.3C-40.52 -22.06 -40.14 -22.94 -40.14 -23.94C-41.26 -24.3 -41.82 -25.06 -41.82 -26.22C-41.82 -27.46 -41.36 -28.45 -40.44 -29.19C-39.52 -29.93 -38.12 -30.3 -36.24 -30.3C-34.6 -30.3 -33.3 -30.07 -32.34 -29.61C-31.38 -29.15 -30.67 -28.35 -30.21 -27.21C-29.75 -26.07 -29.52 -24.46 -29.52 -22.38L-29.52 -17.76L-33.54 -17.76C-37.7 -17.76 -41.36 -16.97 -44.52 -15.39C-47.68 -13.81 -49.26 -11.14 -49.26 -7.38C-49.26 -4.74 -48.44 -2.75 -46.8 -1.41ZM-33.87 -3C-35.01 -2.36 -36.12 -2.04 -37.2 -2.04C-39.2 -2.04 -40.72 -2.5 -41.76 -3.42C-42.8 -4.34 -43.32 -5.9 -43.32 -8.1C-43.32 -10.74 -42.51 -12.79 -40.89 -14.25C-39.27 -15.71 -36.82 -16.44 -33.54 -16.44L-29.52 -16.44L-29.52 -10.2C-29.68 -8.48 -30.16 -7.01 -30.96 -5.79C-31.76 -4.57 -32.73 -3.64 -33.87 -3Z M-10.29 -1.38C-8.71 -0.06 -6.6 0.6 -3.96 0.6C-1.44 0.6 0.72 -0.2 2.52 -1.8L1.74 -2.76C1.66 -2.68 1.45 -2.54 1.11 -2.34C0.77 -2.14 0.31 -1.94 -0.27 -1.74C-0.85 -1.54 -1.46 -1.44 -2.1 -1.44C-5.14 -1.44 -6.66 -3.56 -6.66 -7.8L-6.66 -29.28L1.14 -29.88L1.14 -31.08L-6.66 -31.08L-6.66 -37.56L-12.66 -36.06L-12.66 -31.08L-16.92 -31.08L-16.92 -29.88L-12.66 -29.28L-12.66 -7.68C-12.66 -4.8 -11.87 -2.7 -10.29 -1.38Z M19.56 0L37.2 0L37.2 -1.26L31.68 -2.16L31.68 -45.84L37.2 -46.68L37.2 -48L19.56 -48L19.56 -46.68L25.08 -45.84L25.08 -2.16L19.56 -1.26Z M45.78 -1.5C47.98 -0.1 50.72 0.6 54 0.6C57.76 0.6 60.56 -0.36 62.4 -2.28C64.24 -4.2 65.16 -6.62 65.16 -9.54C65.16 -11.58 64.66 -13.24 63.66 -14.52C62.66 -15.8 61.18 -16.8 59.22 -17.52L50.82 -20.52C48.94 -21.2 47.65 -21.82 46.95 -22.38C46.25 -22.94 45.9 -23.7 45.9 -24.66C45.9 -25.58 46.22 -26.48 46.86 -27.36C47.5 -28.24 48.45 -28.95 49.71 -29.49C50.97 -30.03 52.48 -30.3 54.24 -30.3C56.28 -30.3 57.79 -29.94 58.77 -29.22C59.75 -28.5 60.24 -27.58 60.24 -26.46C60.24 -25.82 60.14 -25.27 59.94 -24.81C59.74 -24.35 59.38 -23.92 58.86 -23.52C58.86 -22.72 59.13 -22.09 59.67 -21.63C60.21 -21.17 60.9 -20.94 61.74 -20.94C62.58 -20.94 63.26 -21.23 63.78 -21.81C64.3 -22.39 64.56 -23.16 64.56 -24.12C64.56 -26.52 63.55 -28.37 61.53 -29.67C59.51 -30.97 57.08 -31.62 54.24 -31.62C50.8 -31.62 48.1 -30.71 46.14 -28.89C44.18 -27.07 43.2 -24.74 43.2 -21.9C43.2 -18.42 44.98 -16.04 48.54 -14.76L57.6 -11.46C59.56 -10.74 60.88 -10.1 61.56 -9.54C62.24 -8.98 62.58 -8.14 62.58 -7.02C62.58 -5.1 61.78 -3.57 60.18 -2.43C58.58 -1.29 56.52 -0.72 54 -0.72C52.12 -0.72 50.62 -1.18 49.5 -2.1C48.38 -3.02 47.82 -4.1 47.82 -5.34C47.82 -6.42 48.26 -7.44 49.14 -8.4C48.9 -9.12 48.5 -9.68 47.94 -10.08C47.38 -10.48 46.7 -10.68 45.9 -10.68C44.86 -10.68 44.03 -10.35 43.41 -9.69C42.79 -9.03 42.48 -8.12 42.48 -6.96C42.48 -4.72 43.58 -2.9 45.78 -1.5Z M69.36 0L84.06 0L84.06 -1.2L79.86 -1.8L79.86 -48L69.36 -48L69.36 -46.8L73.86 -46.2L73.86 -1.8L69.36 -1.2Z M90.54 -1.41C92.18 -0.07 94.28 0.6 96.84 0.6C99.24 0.6 101.43 0.02 103.41 -1.14C105.39 -2.3 106.86 -3.9 107.82 -5.94C107.86 -3.7 108.51 -2.05 109.77 -0.99C111.03 0.07 112.58 0.6 114.42 0.6C116.02 0.6 117.27 0.2 118.17 -0.6C119.07 -1.4 119.52 -2.5 119.52 -3.9L118.26 -3.9C118.26 -3.1 118.06 -2.47 117.66 -2.01C117.26 -1.55 116.72 -1.32 116.04 -1.32C115.32 -1.32 114.77 -1.55 114.39 -2.01C114.01 -2.47 113.82 -3.14 113.82 -4.02L113.82 -21.18C113.82 -28.14 109.82 -31.62 101.82 -31.62C98.34 -31.62 95.44 -30.92 93.12 -29.52C90.8 -28.12 89.64 -26.26 89.64 -23.94C89.64 -22.66 89.98 -21.71 90.66 -21.09C91.34 -20.47 92.24 -20.16 93.36 -20.16C94.4 -20.16 95.3 -20.54 96.06 -21.3C96.82 -22.06 97.2 -22.94 97.2 -23.94C96.08 -24.3 95.52 -25.06 95.52 -26.22C95.52 -27.46 95.98 -28.45 96.9 -29.19C97.82 -29.93 99.22 -30.3 101.1 -30.3C102.74 -30.3 104.04 -30.07 105 -29.61C105.96 -29.15 106.67 -28.35 107.13 -27.21C107.59 -26.07 107.82 -24.46 107.82 -22.38L107.82 -17.76L103.8 -17.76C99.64 -17.76 95.98 -16.97 92.82 -15.39C89.66 -13.81 88.08 -11.14 88.08 -7.38C88.08 -4.74 88.9 -2.75 90.54 -1.41ZM103.47 -3C102.33 -2.36 101.22 -2.04 100.14 -2.04C98.14 -2.04 96.62 -2.5 95.58 -3.42C94.54 -4.34 94.02 -5.9 94.02 -8.1C94.02 -10.74 94.83 -12.79 96.45 -14.25C98.07 -15.71 100.52 -16.44 103.8 -16.44L107.82 -16.44L107.82 -10.2C107.66 -8.48 107.18 -7.01 106.38 -5.79C105.58 -4.57 104.61 -3.64 103.47 -3Z M120.96 -1.2L120.96 0L134.76 0L134.76 -1.2L131.16 -1.8L131.16 -23.46C132.4 -25.22 133.79 -26.66 135.33 -27.78C136.87 -28.9 138.46 -29.46 140.1 -29.46C141.82 -29.46 143.06 -28.9 143.82 -27.78C144.58 -26.66 144.96 -25.04 144.96 -22.92L144.96 -1.8L141.36 -1.2L141.36 0L154.62 0L154.62 -1.2L151.02 -1.8L151.02 -23.46C152.26 -25.22 153.65 -26.66 155.19 -27.78C156.73 -28.9 158.32 -29.46 159.96 -29.46C161.68 -29.46 162.92 -28.9 163.68 -27.78C164.44 -26.66 164.82 -25.04 164.82 -22.92L164.82 -1.8L161.22 -1.2L161.22 0L175.02 0L175.02 -1.2L170.82 -1.8L170.82 -23.04C170.82 -25.92 170.03 -28.07 168.45 -29.49C166.87 -30.91 164.66 -31.62 161.82 -31.62C159.62 -31.62 157.6 -31.05 155.76 -29.91C153.92 -28.77 152.28 -27.22 150.84 -25.26C150.44 -27.38 149.47 -28.97 147.93 -30.03C146.39 -31.09 144.4 -31.62 141.96 -31.62C139.84 -31.62 137.87 -31.08 136.05 -30C134.23 -28.92 132.6 -27.44 131.16 -25.56L131.16 -31.08L120.96 -31.08L120.96 -29.88L125.16 -29.28L125.16 -1.8Z"></path></g></g></svg>